<?xml version="1.0" encoding="UTF-8"?>
<svg width="50px" height="50px" viewBox="0 0 50 50" version="1.1" xmlns="http://www.w3.org/2000/svg" xmlns:xlink="http://www.w3.org/1999/xlink">
    <!-- Generator: Sketch 43.2 (39069) - http://www.bohemiancoding.com/sketch -->
    <title>moon</title>
    <desc>Created with Sketch.</desc>
    <defs></defs>
    <g id="Page-1" stroke="none" stroke-width="1" fill="none" fill-rule="evenodd">
        <g id="Group-2">
            <path d="M48.8370453,36.7374038 C48.6403416,36.4490865 48.2469341,36.256875 47.8535267,36.3529808 C35.3628402,38.2750961 23.4622649,30.2983173 20.9051165,18.1889904 C19.6265423,12.4226442 20.7084127,6.56019227 23.7573205,1.46658649 C23.9540242,1.17826919 23.9540242,0.697740339 23.7573205,0.409423032 C23.5606167,0.121105724 23.1672093,-0.0711058151 22.7738019,0.0249999542 L21.4952276,0.217211493 C7.6276151,3.0042788 -1.32240435,16.3629807 1.52979965,29.9138942 C4.18529992,41.8310096 14.9056529,50 26.8062282,50 C28.5765617,50 30.3468952,49.8077885 32.1172287,49.4233654 C39.100211,47.9817788 45.1980264,43.753125 48.9353972,37.7945673 C49.033749,37.50625 49.033749,37.0257211 48.8370453,36.7374038 Z M31.6254694,47.5973558 C18.8397274,50.1922115 6.15233716,42.1193269 3.49683689,29.6255769 C0.939688475,17.3240384 8.80783744,5.31081727 21.1018202,2.33153842 C18.5446718,7.32903842 17.8562087,12.9992788 19.0364311,18.5734134 C21.6919314,30.9710577 33.2974511,39.4283654 45.9848413,38.4673077 C42.5425261,43.1764904 37.4282293,46.4440865 31.6254694,47.5973558 Z" id="Shape" fill="#FDCDA0" fill-rule="nonzero"></path>
            <path d="M42.7169578,15.692284 L45.8742498,17.4375921 L46.7753881,17.9357291 L46.6096226,16.9195044 L46.0010611,13.1887206 L48.5748355,10.5508016 L49.2543744,9.85432702 L48.2924746,9.70736182 L44.7558089,9.16700737 L43.1695786,5.78755137 L42.7169578,4.82324496 L42.264337,5.78755137 L40.6781067,9.16700737 L37.1414409,9.70736182 L36.1795411,9.85432702 L36.85908,10.5508016 L39.4328545,13.1887206 L38.8242929,16.9195044 L38.6585274,17.9357291 L39.5596658,17.4375921 L42.7169578,15.692284 Z" id="Star" stroke="#FDCDA0"></path>
        </g>
    </g>
</svg>