<svg xmlns="http://www.w3.org/2000/svg" xmlns:xlink="http://www.w3.org/1999/xlink" version="1.1" x="0px" y="0px" viewBox="0 0 100 100" enable-background="new 0 0 100 100" xml:space="preserve"><g><path d="M84.916,71.594L56.851,32.964l25.412-8.257C92.807,38.266,93.863,56.932,84.916,71.594z"></path></g><g><path d="M35.602,11.211v26.721l45.412-14.755C69.834,10.138,51.755,5.375,35.602,11.211z"></path></g><g><path d="M33.761,11.927v47.749L8.347,51.418C7.787,34.252,17.905,18.53,33.761,11.927z"></path></g><g><path d="M8.459,53.391l45.412,14.756L38.165,89.764C21.665,84.992,9.839,70.51,8.459,53.391z"></path></g><g><path d="M40.074,90.268l28.066-38.629l15.706,21.617C74.211,87.473,56.783,94.246,40.074,90.268z"></path></g></svg>