<?xml version="1.0" encoding="UTF-8"?>
<svg width="50px" height="50px" viewBox="0 0 50 50" version="1.1" xmlns="http://www.w3.org/2000/svg" xmlns:xlink="http://www.w3.org/1999/xlink">
    <!-- Generator: Sketch 43.2 (39069) - http://www.bohemiancoding.com/sketch -->
    <title>sun</title>
    <desc>Created with Sketch.</desc>
    <defs></defs>
    <g id="Page-1" stroke="none" stroke-width="1" fill="none" fill-rule="evenodd">
        <g id="Group" transform="translate(-1.000000, 0.000000)" fill-rule="nonzero" fill="#222222">
            <path d="M20.5996385,12.1297271 C17.1407425,13.5714888 14.4504901,16.2627772 13.0092835,19.7230052 C11.5680768,23.1832332 11.5680768,26.9318135 13.0092835,30.3920415 C14.4504901,33.8522694 17.1407425,36.5435579 20.5996385,37.9853195 C22.3290865,38.6581416 24.1546149,39.0426114 25.9801433,39.0426114 C27.8056717,39.0426114 29.6312002,38.6581416 31.3606481,37.9853195 C38.4706009,35.0056788 41.8334164,26.835696 38.9510031,19.7230052 C35.9725094,12.5141969 27.7095913,9.15008638 20.5996385,12.1297271 Z M30.5920046,36.1590881 C27.6135108,37.4086149 24.3467758,37.4086149 21.368282,36.1590881 C18.3897883,34.9095613 16.0838577,32.6027427 14.8348119,29.6231019 C13.5857661,26.6434612 13.5857661,23.3754681 14.8348119,20.3958273 C16.0838577,17.4161865 18.3897883,15.1093679 21.368282,13.8598411 C22.9055691,13.2831365 24.4428562,12.8986667 25.9801433,12.8986667 C30.688085,12.8986667 35.2038659,15.6860726 37.1254747,20.2997099 C39.6235662,26.5473437 36.7411529,33.5639171 30.5920046,36.1590881 Z" id="Shape"></path>
            <path d="M18.1976274,8.66949916 C18.3897883,9.05396894 18.6780296,9.24620383 19.0623514,9.24620383 C19.1584318,9.24620383 19.3505927,9.24620383 19.4466732,9.15008638 C19.9270754,8.95785149 20.2153167,8.38114683 19.9270754,7.90055961 L16.9485817,0.595633884 C16.7564208,0.115046665 16.1799381,-0.173305667 15.6995359,0.115046665 C15.2191337,0.307281552 14.9308923,0.883986215 15.2191337,1.36457343 L18.1976274,8.66949916 Z" id="Shape"></path>
            <path d="M33.7626592,41.3494301 C33.5704983,40.8688428 32.9940157,40.5804905 32.5136134,40.8688428 C32.0332112,41.0610777 31.7449699,41.6377824 32.0332112,42.1183696 L35.011705,49.4232953 C35.2038659,49.8077651 35.4921072,50 35.876429,50 C35.9725094,50 36.1646703,50 36.2607507,49.9038826 C36.7411529,49.7116477 37.0293943,49.134943 36.7411529,48.6543558 L33.7626592,41.3494301 Z" id="Shape"></path>
            <path d="M8.87782443,31.0648636 L1.57571075,34.0445043 C1.09530853,34.2367392 0.807067202,34.8134439 1.09530853,35.2940311 C1.28746942,35.6785009 1.57571075,35.8707358 1.96003252,35.8707358 C2.05611296,35.8707358 2.24827385,35.8707358 2.34435429,35.7746183 L9.64646797,32.7949776 C10.1268702,32.6027427 10.4151115,32.026038 10.1268702,31.5454508 C9.83862886,31.0648636 9.35822664,30.8726287 8.87782443,31.0648636 Z" id="Shape"></path>
            <path d="M42.6981404,19.0501831 C42.7942209,19.0501831 42.9863818,19.0501831 43.0824622,18.9540657 L50.3845759,15.9744249 C50.8649781,15.78219 51.1532194,15.2054853 50.8649781,14.7248981 C50.6728172,14.2443109 50.0963345,13.9559586 49.6159323,14.2443109 L42.3138186,17.2239517 C41.8334164,17.4161865 41.5451751,17.9928912 41.8334164,18.4734784 C41.9294969,18.8579482 42.3138186,19.0501831 42.6981404,19.0501831 Z" id="Shape"></path>
            <path d="M1.57571075,15.9744249 L8.87782443,18.9540657 C8.97390487,19.0501831 9.16606576,19.0501831 9.2621462,19.0501831 C9.64646797,19.0501831 10.0307897,18.8579482 10.1268702,18.4734784 C10.3190311,17.9928912 10.1268702,17.4161865 9.64646797,17.2239517 L2.34435429,14.2443109 C1.86395208,14.052076 1.28746942,14.2443109 1.09530853,14.7248981 C0.903147645,15.2054853 1.09530853,15.78219 1.57571075,15.9744249 Z" id="Shape"></path>
            <path d="M50.3845759,34.0445043 L43.0824622,31.0648636 C42.60206,30.8726287 42.0255773,31.0648636 41.8334164,31.5454508 C41.6412555,32.026038 41.8334164,32.6027427 42.3138186,32.7949776 L49.6159323,35.7746183 C49.7120128,35.8707358 49.9041737,35.8707358 50.0002541,35.8707358 C50.3845759,35.8707358 50.7688976,35.6785009 50.8649781,35.2940311 C51.057139,34.8134439 50.8649781,34.2367392 50.3845759,34.0445043 Z" id="Shape"></path>
            <path d="M19.4466732,40.8688428 C18.966271,40.676608 18.3897883,40.8688428 18.1976274,41.3494301 L15.2191337,48.6543558 C15.0269728,49.134943 15.2191337,49.7116477 15.6995359,49.9038826 C15.7956163,50 15.9877772,50 16.0838577,50 C16.4681794,50 16.8525012,49.8077651 16.9485817,49.4232953 L19.9270754,42.1183696 C20.1192363,41.6377824 19.9270754,41.0610777 19.4466732,40.8688428 Z" id="Shape"></path>
            <path d="M32.5136134,9.15008638 C32.6096939,9.24620383 32.8018548,9.24620383 32.8979352,9.24620383 C33.282257,9.24620383 33.6665788,9.05396894 33.7626592,8.66949916 L36.7411529,1.36457343 C36.9333138,0.883986215 36.7411529,0.307281552 36.2607507,0.115046665 C35.7803485,-0.0771882228 35.2038659,0.115046665 35.011705,0.595633884 L32.0332112,7.90055961 C31.8410503,8.38114683 32.0332112,8.95785149 32.5136134,9.15008638 Z" id="Shape"></path>
        </g>
    </g>
</svg>